<svg version="1.1" xmlns="http://www.w3.org/2000/svg" xmlns:xlink="http://www.w3.org/1999/xlink" x="0px" y="0px" width="100%"
	 height="100%" viewBox="0 0 234 234" style="enable-background:new 0 0 234 234;" xml:space="preserve" id="icon">
<defs>
	<style>
		.st0{fill:none;stroke:#D1D3D4;stroke-width:8;stroke-miterlimit:10; transition:0.4s;}
		.st1{fill:#FFFFFF;stroke:#D1D3D4;stroke-width:8;stroke-miterlimit:10;transition:0.4s;}

		#icon.active .st0, #icon.active .st1{
			fill: #fff;
			stroke: #262262;
		}
		#shape circle {
			transform-origin: 50% 50%;
		}
		#icon.active #shape circle:first-child {
			transform: scale(0);
		}
		
		@media screen and (max-width:200px){
			#details { display:none;}
		}	


		#icon:hover .st1, #icon:hover .st0{
			fill: #262262;
			stroke: #fff;
		}
	</style>
	<script>
		document.querySelector('#icon').addEventListener('click', function(e){
			e.preventDefault(); 
			this.classList.toggle('active');
		});
	</script>
</defs>


<g id="shape">
	<circle class="st1" cx="117" cy="116.833" r="108"/>
	<g>
		<path class="st1" d="M178,74.833c0,6.627-5.373,12-12,12H68c-6.627,0-12-5.373-12-12v-13c0-6.627,5.373-12,12-12h98
			c6.627,0,12,5.373,12,12V74.833z"/>
		<path class="st1" d="M178,123.833c0,6.627-5.373,12-12,12H68c-6.627,0-12-5.373-12-12v-13c0-6.627,5.373-12,12-12h98
			c6.627,0,12,5.373,12,12V123.833z"/>
		<path class="st1" d="M178,172.833c0,6.627-5.373,12-12,12H68c-6.627,0-12-5.373-12-12v-13c0-6.627,5.373-12,12-12h98
			c6.627,0,12,5.373,12,12V172.833z"/>
	</g>
</g>
<g id="details">
	<line class="st0" x1="159" y1="68.833" x2="89" y2="68.833"/>
	<line class="st0" x1="159" y1="117.833" x2="89" y2="117.833"/>
	<line class="st0" x1="159" y1="166.833" x2="89" y2="166.833"/>
</g>
</svg>
